<svg width="297" height="81" viewBox="0 0 297 81" fill="none" xmlns="http://www.w3.org/2000/svg">
<path d="M77.4946 46.8438C73.8852 54.2292 67.1769 59.1876 60.3696 59.4636C53.8592 59.7344 49.854 57.2813 47.6509 55.1563C44.0207 51.7032 42.2186 46.5417 42.2186 39.8594C42.2186 34.9532 38.2134 30.948 33.2811 30.948C27.8227 30.948 23.4894 35.8803 24.4946 41.4844C25.1196 44.9897 27.8696 47.8438 31.354 48.5938C32.4529 48.823 33.5571 48.8699 34.604 48.698C37.1352 48.323 39.5884 49.7969 40.6665 52.099C40.6925 52.1511 40.6925 52.1772 40.7134 52.2032C42.4686 55.8803 40.1873 60.2605 36.1613 60.8126C33.6821 61.1407 31.104 61.0365 28.5467 60.4897C20.0102 58.5834 13.4529 51.349 12.3227 42.6615C10.6248 29.7709 20.6613 18.7292 33.255 18.7292C44.8957 18.7292 54.3852 28.2188 54.3852 39.8594C54.3852 42.9636 54.9842 45.3178 56.0623 46.3438C56.7863 47.0209 58.0415 47.3438 59.8436 47.2709C61.4217 47.1928 64.1248 46.4428 67.0519 41.8126C70.4321 36.4792 72.0832 17.099 54.8592 5.98445C46.7238 0.729239 36.4842 -0.499929 27.3488 2.7084C10.9477 8.48966 -0.61997 24.5626 0.510238 43.1876C1.70815 63.1928 17.8332 79.4897 37.8384 80.8647C61.3696 82.4949 80.9477 63.8907 80.9477 40.7084C80.9477 39.2813 80.8696 37.8803 80.7238 36.5053C80.0467 41.2084 78.5207 44.7136 77.4946 46.8438Z" fill="#4890FF"/>
<path d="M87.505 20.1303C87.505 20.6303 87.4582 21.1303 87.3592 21.6199C87.2602 22.1146 87.1196 22.5886 86.9269 23.0521C86.7342 23.5157 86.4998 23.9584 86.2186 24.3751C85.9425 24.7917 85.6248 25.1771 85.2707 25.5313C84.9165 25.8855 84.5311 26.2032 84.1144 26.4792C83.6977 26.7605 83.255 26.9949 82.7915 27.1876C82.3279 27.3751 81.854 27.5209 81.3592 27.6199C80.8696 27.7188 80.3696 27.7657 79.8696 27.7657C79.3696 27.7657 78.8748 27.7188 78.38 27.6199C77.8905 27.5209 77.4113 27.3751 76.9477 27.1876C76.4842 26.9949 76.0467 26.7605 75.63 26.4792C75.2134 26.2032 74.828 25.8855 74.4738 25.5313C74.1144 25.1771 73.8019 24.7917 73.5207 24.3751C73.2446 23.9584 73.0102 23.5157 72.8175 23.0521C72.6248 22.5886 72.479 22.1146 72.38 21.6199C72.2863 21.1303 72.2342 20.6303 72.2342 20.1303C72.2342 19.6303 72.2863 19.1355 72.38 18.6407C72.479 18.1511 72.6248 17.6719 72.8175 17.2084C73.0102 16.7449 73.2446 16.3074 73.5207 15.8907C73.8019 15.474 74.1144 15.0886 74.4738 14.7292C74.828 14.3751 75.2134 14.0626 75.63 13.7813C76.0467 13.5053 76.4842 13.2657 76.9477 13.0782C77.4113 12.8855 77.8905 12.7396 78.38 12.6407C78.8748 12.5417 79.3696 12.4949 79.8696 12.4949C80.3696 12.4949 80.8696 12.5417 81.3592 12.6407C81.854 12.7396 82.3279 12.8855 82.7915 13.0782C83.255 13.2657 83.6977 13.5053 84.1144 13.7813C84.5311 14.0626 84.9165 14.3751 85.2707 14.7292C85.6248 15.0886 85.9425 15.474 86.2186 15.8907C86.4998 16.3074 86.7342 16.7449 86.9269 17.2084C87.1196 17.6719 87.2602 18.1511 87.3592 18.6407C87.4582 19.1355 87.505 19.6303 87.505 20.1303Z" fill="#4890FF"/>
<path d="M124.079 52.5H109.225L106.454 59.3334H96.3083L111.829 24.1875H121.621L137.183 59.3334H126.85L124.079 52.5ZM121.162 45.1667L116.642 33.9375L112.121 45.1667H121.162Z" fill="#4890FF"/>
<path d="M165.591 32.125V59.3334H156.508V56.4167C155.492 57.5313 154.284 58.3698 152.883 58.9375C151.477 59.5053 149.987 59.7917 148.404 59.7917C144.888 59.7917 142.081 58.7605 139.987 56.6875C137.904 54.6042 136.862 51.4896 136.862 47.3334V32.125H146.404V45.7709C146.404 47.8125 146.784 49.3073 147.55 50.25C148.326 51.1823 149.451 51.6459 150.925 51.6459C152.425 51.6459 153.654 51.1198 154.612 50.0625C155.57 49.0105 156.05 47.3959 156.05 45.2292V32.125H165.591Z" fill="#4890FF"/>
<path d="M187.906 58.2292C187.115 58.7292 186.136 59.1146 184.969 59.3751C183.813 59.6511 182.584 59.7917 181.281 59.7917C177.74 59.7917 175.011 58.9271 173.094 57.1876C171.188 55.4376 170.24 52.8438 170.24 49.3959V40.25H166.281V33.125H170.24V26.0417H179.781V33.125H186.011V40.25H179.781V49.2917C179.781 50.2657 180.037 51.0313 180.552 51.5834C181.078 52.1251 181.771 52.3959 182.636 52.3959C183.745 52.3959 184.719 52.1146 185.552 51.5417L187.906 58.2292Z" fill="#4890FF"/>
<path d="M202.676 59.7917C199.759 59.7917 197.124 59.1876 194.78 57.9792C192.431 56.7709 190.598 55.099 189.28 52.9584C187.957 50.823 187.301 48.3907 187.301 45.6667C187.301 43.0001 187.957 40.599 189.28 38.4584C190.598 36.3073 192.415 34.6407 194.738 33.4584C197.072 32.2657 199.717 31.6667 202.676 31.6667C205.618 31.6667 208.259 32.2657 210.592 33.4584C212.936 34.6407 214.764 36.2917 216.072 38.4167C217.374 40.5417 218.03 42.9584 218.03 45.6667C218.03 48.3907 217.374 50.823 216.072 52.9584C214.764 55.099 212.936 56.7709 210.592 57.9792C208.259 59.1876 205.618 59.7917 202.676 59.7917ZM202.676 52.2084C204.342 52.2084 205.707 51.6355 206.78 50.4792C207.848 49.3126 208.384 47.7084 208.384 45.6667C208.384 43.6667 207.848 42.099 206.78 40.9584C205.707 39.823 204.342 39.25 202.676 39.25C200.993 39.25 199.618 39.823 198.551 40.9584C197.478 42.099 196.947 43.6667 196.947 45.6667C196.947 47.7084 197.478 49.3126 198.551 50.4792C199.618 51.6355 200.993 52.2084 202.676 52.2084Z" fill="#4890FF"/>
<path d="M259.397 63.3959C258.215 64.8386 256.777 65.9376 255.084 66.6876C253.402 67.4376 251.553 67.8126 249.543 67.8126C247.61 67.8126 245.855 67.5626 244.272 67.0626C242.699 66.5626 241.116 65.7344 239.522 64.5834C237.939 63.4271 236.157 61.8126 234.189 59.7292C231.147 59.2292 228.428 58.1459 226.043 56.4792C223.668 54.8021 221.819 52.6876 220.501 50.1459C219.178 47.6042 218.522 44.8073 218.522 41.75C218.522 38.2813 219.36 35.1563 221.043 32.3751C222.735 29.599 225.064 27.4271 228.022 25.8542C230.991 24.2709 234.334 23.4792 238.043 23.4792C241.761 23.4792 245.105 24.2709 248.064 25.8542C251.032 27.4271 253.36 29.599 255.043 32.3751C256.735 35.1563 257.584 38.2813 257.584 41.75C257.584 45.7084 256.501 49.2032 254.334 52.2292C252.178 55.2605 249.277 57.4271 245.626 58.7292C246.303 59.4636 246.97 59.9792 247.626 60.2709C248.277 60.573 248.985 60.7292 249.751 60.7292C251.72 60.7292 253.491 59.9063 255.064 58.2709L259.397 63.3959ZM228.564 41.75C228.564 43.7396 228.98 45.4948 229.814 47.0209C230.647 48.5365 231.782 49.7084 233.23 50.5417C234.673 51.3751 236.277 51.7917 238.043 51.7917C239.819 51.7917 241.423 51.3751 242.855 50.5417C244.298 49.7084 245.439 48.5365 246.272 47.0209C247.116 45.4948 247.543 43.7396 247.543 41.75C247.543 39.7813 247.116 38.0365 246.272 36.5209C245.439 34.9948 244.298 33.8126 242.855 32.9792C241.423 32.1355 239.819 31.7084 238.043 31.7084C236.277 31.7084 234.673 32.1355 233.23 32.9792C231.782 33.8126 230.647 34.9948 229.814 36.5209C228.98 38.0365 228.564 39.7813 228.564 41.75Z" fill="#FF914D"/>
<path d="M283.774 52.5H268.92L266.149 59.3334H256.003L271.524 24.1875H281.316L296.878 59.3334H286.545L283.774 52.5ZM280.858 45.1667L276.337 33.9375L271.816 45.1667H280.858Z" fill="#FF914D"/>
</svg>
